<svg width="24" height="24" viewBox="0 0 24 24" fill="none" xmlns="http://www.w3.org/2000/svg"><g><path fill-rule="evenodd" clip-rule="evenodd" d="M7.67208 3.37143C7.67208 2.06172 8.73338 1 10.0426 1C10.8556 1 11.573 1.40946 12 2.03347C12.427 1.40946 13.1445 1 13.9575 1C15.2667 1 16.328 2.06172 16.328 3.37143C16.328 5.00167 15.4827 7.00169 14.6752 8.56313C15.8961 7.29858 17.5203 5.85781 19.0645 5.33661C20.3049 4.91792 21.6499 5.58453 22.0684 6.8255C22.3283 7.59615 22.1698 8.40708 21.7153 9.01133C22.4428 9.21662 23.06 9.76577 23.3199 10.5364C23.7384 11.7774 23.0721 13.1228 21.8316 13.5415C20.2202 14.0854 17.9332 13.8854 16.1614 13.5993C17.7781 14.379 19.7682 15.5243 20.7786 16.8929C21.5563 17.9465 21.3331 19.4313 20.28 20.2093C19.626 20.6925 18.8057 20.7895 18.0917 20.5413C18.1188 21.2971 17.7848 22.0528 17.1308 22.536C16.0777 23.3141 14.5935 23.0908 13.8157 22.0372C12.8481 20.7266 12.2769 18.6177 11.9991 16.8823C11.7212 18.6175 11.1518 20.7268 10.1843 22.0372C9.40659 23.0908 7.92237 23.3141 6.86925 22.536C6.21525 22.0528 5.88129 21.2971 5.90838 20.5413C5.1943 20.7895 4.37406 20.6925 3.72006 20.2093C2.66694 19.4313 2.44373 17.9465 3.22149 16.8929C4.23185 15.5243 6.22196 14.379 7.83865 13.5993C6.06686 13.8854 3.77981 14.0854 2.16845 13.5415C0.927962 13.1228 0.261617 11.7774 0.680158 10.5364C0.940068 9.76577 1.55721 9.21662 2.28477 9.01133C1.83025 8.40708 1.67177 7.59615 1.93168 6.8255C2.35019 5.58453 3.6951 4.91792 4.93559 5.33661C6.47977 5.85781 8.10398 7.29858 9.32482 8.56313C8.51737 7.00169 7.67208 5.00167 7.67208 3.37143ZM12 14.3166C13.271 14.3166 14.3013 13.2863 14.3013 12.0153C14.3013 10.7444 13.271 9.71409 12 9.71409C10.7291 9.71409 9.69877 10.7444 9.69877 12.0153C9.69877 13.2863 10.7291 14.3166 12 14.3166Z" fill="#F7F7F7"></path></g></svg>