<svg viewBox="0 0 48 48" fill="none" xmlns="http://www.w3.org/2000/svg">
<g clip-path="url(#clip0_1207_2468)">
<path d="M2.00001 3.27996C2.33118 3.97707 2.43607 4.76028 2.30001 5.51996C2.07229 6.53277 1.73705 7.51836 1.30001 8.45996C0.812354 9.61232 0.554198 10.8487 0.540007 12.1C0.56308 13.2615 1.00321 14.376 1.78001 15.24C1.82566 15.3268 1.88955 15.4027 1.9673 15.4625C2.04505 15.5223 2.13482 15.5646 2.23044 15.5864C2.32607 15.6082 2.42528 15.6091 2.52128 15.589C2.61729 15.5689 2.7078 15.5283 2.78662 15.4699C2.86544 15.4115 2.93069 15.3368 2.97791 15.2508C3.02512 15.1648 3.05317 15.0696 3.06015 14.9718C3.06712 14.874 3.05284 14.7758 3.01829 14.684C2.98375 14.5922 2.92975 14.5089 2.86001 14.44C2.41875 13.7666 2.22766 12.9597 2.32001 12.16C2.51838 11.1625 2.87631 10.2035 3.38001 9.31996C3.93236 8.22369 4.31666 7.05056 4.52001 5.83996C4.57163 4.86524 4.34996 3.89547 3.88001 3.03996C3.27022 1.88904 2.40054 0.896098 1.34001 0.139961C1.28584 0.0830817 1.22068 0.0377982 1.14848 0.00685682C1.07628 -0.0240846 0.998555 -0.0400391 0.920007 -0.0400391C0.84146 -0.0400391 0.763731 -0.0240846 0.691534 0.00685682C0.619338 0.0377982 0.554178 0.0830817 0.500007 0.139961C0.443128 0.194132 0.397845 0.259291 0.366903 0.331488C0.335962 0.403684 0.320007 0.481413 0.320007 0.559961C0.320007 0.638508 0.335962 0.716238 0.366903 0.788434C0.397845 0.860631 0.443128 0.92579 0.500007 0.979961C1.14491 1.64172 1.65444 2.42299 2.00001 3.27996Z" fill="currentColor"/>
<path d="M11.4 5.67992C11.52 6.05992 11.58 6.43992 11.66 6.81992C11.7597 7.32841 11.7597 7.85143 11.66 8.35992C11.5973 8.87398 11.4696 9.37801 11.28 9.85992C10.98 10.6999 10.62 11.5599 10.34 12.4199C10.2731 12.5846 10.2733 12.7688 10.3406 12.9333C10.4079 13.0978 10.5369 13.2294 10.7 13.2999C10.7822 13.339 10.8716 13.3607 10.9626 13.3636C11.0536 13.3665 11.1442 13.3506 11.2287 13.3168C11.3132 13.2829 11.3899 13.232 11.4538 13.1672C11.5176 13.1023 11.5674 13.0249 11.6 12.9399C12.1 12.0399 12.76 11.1599 13.26 10.2599C13.5022 9.79863 13.703 9.31673 13.86 8.81992C14.0948 7.73942 14.0115 6.61402 13.62 5.57992C12.9825 4.29466 12.1899 3.09236 11.26 1.99992C11.2206 1.93163 11.1681 1.87177 11.1056 1.82376C11.0431 1.77575 10.9717 1.74052 10.8955 1.72009C10.8194 1.69966 10.74 1.69443 10.6618 1.7047C10.5836 1.71496 10.5083 1.74052 10.44 1.77992C10.3717 1.81931 10.3118 1.87178 10.2638 1.93431C10.2158 1.99684 10.1806 2.06821 10.1602 2.14435C10.1397 2.2205 10.1345 2.29992 10.1448 2.37809C10.155 2.45625 10.1806 2.53163 10.22 2.59992C10.62 3.61992 11.08 4.63992 11.4 5.67992Z" fill="currentColor"/>
<path d="M45.18 38.5399C44.6915 38.449 44.1967 38.3955 43.7 38.3799C40.7 38.1999 33.7 38.2199 30.72 38.3799C29.16 38.4999 27.64 38.5599 26.12 38.6199C23.82 38.6199 21.52 38.7199 19.18 38.7599L5.74002 39.0999C5.06002 39.0999 3.50002 39.0999 2.34002 39.2999C1.75811 39.3311 1.18459 39.4525 0.640019 39.6599C0.537972 39.7328 0.460409 39.8348 0.417562 39.9527C0.374715 40.0705 0.368598 40.1986 0.400019 40.3199C0.275841 40.4071 0.183342 40.5322 0.136449 40.6765C0.0895564 40.8208 0.0908092 40.9764 0.140019 41.1199C0.479095 41.8724 0.961396 42.5517 1.56002 43.1199C2.36586 43.9121 3.24289 44.6285 4.18002 45.2599C5.13841 45.8493 6.18499 46.2815 7.28002 46.5399C8.83696 46.9152 10.4124 47.209 12 47.4199C15.0411 47.8436 18.1098 48.0375 21.18 47.9999C24.2344 47.9733 27.2852 47.7864 30.32 47.4399C32.904 47.2227 35.47 46.8284 38 46.2599C39.7138 45.8104 41.3612 45.138 42.9 44.2599C44.0005 43.4161 44.9535 42.3956 45.72 41.2399C45.963 40.8786 46.1454 40.48 46.26 40.0599C46.3106 39.7722 46.2612 39.4757 46.12 39.2199C46.02 39.0468 45.8846 38.8967 45.7226 38.7795C45.5606 38.6624 45.3757 38.5807 45.18 38.5399ZM41.66 42.1999C40.2934 43.0111 38.828 43.6429 37.3 44.0799C34.9003 44.6713 32.4604 45.0857 30 45.3199C27.0501 45.7444 24.0788 46.0048 21.1 46.0999C18.129 46.2031 15.1545 46.0895 12.2 45.7599C10.6759 45.6027 9.16069 45.3691 7.66002 45.0599C6.71889 44.842 5.81559 44.4847 4.98002 43.9999C4.11469 43.4451 3.30434 42.8089 2.56002 42.0999C2.09136 41.6895 1.70456 41.1941 1.42002 40.6399C2.08194 40.5405 2.7507 40.4937 3.42002 40.4999H5.78002L19.22 40.5999H26.2C27.7334 40.5999 29.2934 40.5599 30.88 40.4799C33.7 40.3399 40.1 40.4799 43.22 40.5999C42.7938 41.2173 42.2664 41.7583 41.66 42.1999Z" fill="currentColor"/>
<path d="M46.9 8.83998C45.9736 7.76946 44.6984 7.06104 43.3 6.83998C42.8168 6.81717 42.3328 6.85751 41.86 6.95998C41.9657 5.98392 41.7479 5.00016 41.24 4.15998C40.34 2.88931 38.9999 1.99834 37.48 1.65998C37.0806 1.55823 36.6718 1.49791 36.26 1.47998C35.8253 1.47665 35.393 1.5442 34.98 1.67998C34.3602 1.83374 33.7862 2.13367 33.306 2.55469C32.8259 2.97571 32.4535 3.50557 32.22 4.09998C31 7.61998 34.5 10.1 34.58 10.1C33.3962 11.0596 32.3349 12.1612 31.42 13.38C31.2111 13.6702 31.0553 13.9953 30.96 14.34C28.1804 13.7124 25.2659 14.1779 22.82 15.64L22.64 15.76C22.0921 15.637 21.538 15.5435 20.98 15.48C19.84 15.34 18.62 15.22 18.26 15.2C17.4354 15.1843 16.6113 15.2513 15.8 15.4C14.6043 15.6216 13.4323 15.9564 12.3 16.4C10.1542 17.2263 8.20555 18.4936 6.58002 20.12C4.96126 21.7479 3.68901 23.6869 2.84002 25.82C2.50915 26.6217 2.2286 27.4433 2.00002 28.28C1.76539 29.1265 1.59161 29.9887 1.48002 30.86C1.30451 32.1875 1.30451 33.5324 1.48002 34.86C1.55464 35.8642 1.98761 36.8082 2.70002 37.52C2.82747 37.647 3.00008 37.7183 3.18002 37.7183C3.35996 37.7183 3.53256 37.647 3.66002 37.52C3.78237 37.3901 3.85051 37.2184 3.85051 37.04C3.85051 36.8615 3.78237 36.6899 3.66002 36.56C3.24511 36.0377 3.0258 35.3868 3.04002 34.72C2.96322 33.5478 3.04393 32.3707 3.28002 31.22C3.43815 30.4476 3.64524 29.6861 3.90002 28.94C4.15362 28.1914 4.44738 27.457 4.78002 26.74C5.60087 24.8761 6.7605 23.1807 8.20002 21.74C9.59054 20.2853 11.2471 19.1107 13.08 18.28C13.9082 17.88 14.7637 17.5391 15.64 17.26C16.4835 16.9992 17.3577 16.8512 18.24 16.82H20.86H21.16C19.0219 18.5786 17.4899 20.9641 16.78 23.64C16.4294 25.241 16.4294 26.8989 16.78 28.5C17.0752 30.0764 17.651 31.587 18.48 32.96L19.84 34.6C19.9196 34.7379 20.0507 34.8385 20.2045 34.8798C20.3582 34.9211 20.5221 34.8995 20.66 34.82C20.7979 34.7404 20.8986 34.6093 20.9398 34.4555C20.9811 34.3018 20.9596 34.1379 20.88 34L19.6 32.32C18.9346 31.0736 18.4945 29.7194 18.3 28.32C18.0908 26.9427 18.1864 25.5363 18.58 24.2C19.4815 21.4007 21.421 19.0532 24 17.64C25.1969 16.9245 26.5476 16.5058 27.9393 16.4188C29.331 16.3318 30.7234 16.5791 32 17.14C32.3865 17.3167 32.7386 17.5605 33.04 17.86C33.6015 18.3729 34.123 18.9278 34.6 19.52C34.7902 19.7417 34.9454 19.9913 35.06 20.26C35.2568 20.8038 35.4237 21.3579 35.56 21.92C35.9715 23.4461 36.0398 25.0444 35.76 26.6C35.5744 28.1482 34.9654 29.6153 34 30.84C33.54 31.36 33.06 31.86 32.54 32.36C29.72 35.08 30.22 33.54 29.58 34.26C29.453 34.3874 29.3817 34.56 29.3817 34.74C29.3817 34.9199 29.453 35.0925 29.58 35.22C29.7077 35.3437 29.864 35.434 30.0349 35.4829C30.2059 35.5317 30.3862 35.5376 30.56 35.5C31.0234 35.3966 31.4554 35.1841 31.82 34.88C32.38 34.42 32.96 33.96 33.5 33.46C34.04 32.96 34.6 32.46 35.1 31.94C36.379 30.5387 37.2384 28.8062 37.58 26.94C37.914 25.3883 37.9614 23.7887 37.72 22.22C38.0824 22.5082 38.4172 22.8296 38.72 23.18C39.202 23.7399 39.6118 24.3581 39.94 25.02C40.3381 25.8259 40.653 26.6702 40.88 27.54C41.1189 28.4106 41.2795 29.3008 41.36 30.2C41.5251 32.0512 41.3072 33.9166 40.72 35.68C40.6811 35.7607 40.6596 35.8488 40.6569 35.9383C40.6542 36.0279 40.6703 36.1171 40.7043 36.2001C40.7382 36.283 40.7892 36.3579 40.8539 36.4199C40.9186 36.4819 40.9957 36.5296 41.08 36.56C41.1637 36.5994 41.2545 36.6213 41.3469 36.6244C41.4393 36.6275 41.5314 36.6117 41.6175 36.578C41.7036 36.5443 41.782 36.4934 41.8477 36.4284C41.9135 36.3634 41.9653 36.2857 42 36.2C42.971 34.3452 43.5046 32.2928 43.56 30.2C43.5641 29.118 43.416 28.0407 43.12 27C42.7973 25.964 42.3257 24.9803 41.72 24.08C41.2028 23.3309 40.5834 22.6578 39.88 22.08C39.1853 21.4725 38.3761 21.0101 37.5 20.72C37.4146 20.3343 37.3078 19.9537 37.18 19.58C36.998 19.0842 36.7417 18.6189 36.42 18.2L36.16 18L37.16 17.22C37.86 16.52 38.5 15.7 39.16 15C39.4808 14.6754 39.8363 14.387 40.22 14.14C41.5022 15.0968 43.0418 15.6471 44.64 15.72C45.3578 15.6324 46.0304 15.3234 46.5644 14.8359C47.0985 14.3485 47.4674 13.7068 47.62 13C47.8999 12.3084 47.9808 11.5524 47.8535 10.8173C47.7263 10.0821 47.396 9.39725 46.9 8.83998ZM45.68 12.36C45.32 13.58 44.68 13.94 43.92 13.84C42.885 13.6094 41.9018 13.189 41.02 12.6C40.8534 12.4909 40.664 12.4215 40.4663 12.3972C40.2687 12.373 40.0681 12.3944 39.88 12.46C39.3739 12.7422 38.9038 13.0847 38.48 13.48C37.62 14.32 36.94 15.34 36.12 16.2L35.26 16.94C35.04 16.68 34.8 16.44 34.56 16.2C34.0867 15.7475 33.5472 15.3698 32.96 15.08C32.6869 14.956 32.4064 14.8491 32.12 14.76C32.2537 14.4042 32.4656 14.083 32.74 13.82C33.414 13.0981 34.1428 12.4294 34.92 11.82C35.08 11.68 35.58 11.36 35.84 11.1C35.9966 10.9231 36.1066 10.71 36.16 10.48C36.2083 10.1254 36.1149 9.76612 35.9 9.47998C35.58 8.97998 34.84 8.37998 34.68 8.05998C34.1868 7.21227 33.9505 6.23949 34 5.25998C34.1 4.51998 34.62 3.97998 35.68 3.67998C35.8795 3.66006 36.0805 3.66006 36.28 3.67998C36.499 3.69559 36.7145 3.74274 36.92 3.81998C37.9074 4.04798 38.776 4.63185 39.36 5.45998C39.5771 5.8625 39.6907 6.31265 39.6907 6.76998C39.6907 7.2273 39.5771 7.67745 39.36 8.07998C39.26 8.29998 39.48 9.95998 40.92 9.63998C41.6469 9.40984 42.3991 9.2688 43.16 9.21998C44.0071 9.29657 44.7969 9.68077 45.38 10.3C45.6143 10.5827 45.7662 10.9245 45.8192 11.2879C45.8721 11.6512 45.8239 12.0222 45.68 12.36Z" fill="currentColor"/>
</g>
<defs>
<clipPath id="clip0_1207_2468">
<rect width="48" height="48" fill="white"/>
</clipPath>
</defs>
</svg>
