<svg  viewBox="0 0 48 48" fill="none" xmlns="http://www.w3.org/2000/svg">
<g clip-path="url(#clip0_1207_2522)">
<path d="M14.84 30.92C13.2662 30.2791 11.6488 29.7511 10 29.34C8.53387 28.9906 7.00615 28.9906 5.54001 29.34C4.51601 29.6657 3.62167 30.3078 2.98559 31.1739C2.34951 32.04 2.00445 33.0854 2.00001 34.16C1.9203 35.193 2.077 36.2306 2.45819 37.1939C2.83939 38.1573 3.43507 39.0212 4.20001 39.72C5.54793 40.7252 7.14605 41.341 8.82001 41.5C10.8157 41.6852 12.8243 41.6852 14.82 41.5L15.04 47.38C15.04 47.5497 15.1074 47.7125 15.2275 47.8325C15.3475 47.9526 15.5103 48.02 15.68 48.02C15.8498 48.02 16.0125 47.9526 16.1326 47.8325C16.2526 47.7125 16.32 47.5497 16.32 47.38V40.6C16.3648 40.3946 16.329 40.1798 16.22 40C16.1477 39.9199 16.0574 39.8582 15.9566 39.82C15.8557 39.7817 15.7472 39.768 15.64 39.78C13.4644 39.8949 11.2829 39.8213 9.12001 39.56C7.80688 39.3757 6.569 38.8363 5.54001 38C5.02379 37.5327 4.61784 36.9566 4.35151 36.3132C4.08518 35.6699 3.96512 34.9754 4.00001 34.28C3.97831 33.6387 4.16011 33.0069 4.51936 32.4752C4.87862 31.9435 5.39691 31.5391 6.00001 31.32C7.15761 31.0482 8.36242 31.0482 9.52001 31.32C11.4463 31.7388 13.349 32.2595 15.22 32.88C15.3286 32.9345 15.4485 32.9629 15.57 32.9629C15.6915 32.9629 15.8114 32.9345 15.92 32.88C16.0921 32.8164 16.2345 32.6912 16.3195 32.5286C16.4045 32.366 16.4261 32.1776 16.38 32L16.18 26.18C16.1448 26.0423 16.0647 25.9203 15.9524 25.8332C15.8402 25.746 15.7021 25.6987 15.56 25.6987C15.4179 25.6987 15.2798 25.746 15.1676 25.8332C15.0553 25.9203 14.9753 26.0423 14.94 26.18L14.84 30.92Z" fill="currentColor"/>
<path d="M45.8202 29.7606C45.6001 28.8766 45.1676 28.0597 44.5602 27.3806C44.0593 26.8585 43.397 26.5203 42.6802 26.4206C42.0713 26.3435 41.4527 26.4191 40.8802 26.6406C40.177 26.9119 39.5062 27.2607 38.8802 27.6806L34.7802 30.4006V29.5806C34.7802 28.3806 34.6402 27.1806 34.5602 25.9806C34.5602 25.4606 33.4202 25.5006 33.3402 25.9806V28.7606V31.7206C33.3375 31.8652 33.373 32.008 33.4433 32.1345C33.5135 32.2609 33.616 32.3666 33.7403 32.4406C33.8642 32.5146 34.0059 32.5537 34.1502 32.5537C34.2946 32.5537 34.4363 32.5146 34.5602 32.4406L40.0002 29.3606C40.4397 29.0944 40.9014 28.8668 41.3802 28.6806C41.724 28.5226 42.1041 28.4604 42.4802 28.5006C42.6414 28.5363 42.7936 28.6044 42.9277 28.7007C43.0617 28.7969 43.1749 28.9194 43.2602 29.0606C43.533 29.4393 43.7299 29.8672 43.8402 30.3206C44.0907 31.3861 44.0907 32.4951 43.8402 33.5606C43.6418 34.5819 43.1235 35.5136 42.3602 36.2206C41.4998 36.9612 40.469 37.4766 39.3602 37.7206C37.5402 38.1806 35.5403 38.2606 33.7403 38.5406C33.5351 38.5609 33.3458 38.6596 33.2116 38.8161C33.0775 38.9726 33.0089 39.1748 33.0202 39.3806L33.6602 47.0206C33.6601 47.1055 33.6773 47.1895 33.711 47.2675C33.7446 47.3455 33.7939 47.4157 33.8557 47.4738C33.9176 47.5319 33.9908 47.5767 34.0707 47.6054C34.1506 47.6341 34.2355 47.6461 34.3202 47.6406C34.4043 47.638 34.487 47.6189 34.5637 47.5843C34.6404 47.5498 34.7095 47.5004 34.767 47.4391C34.8246 47.3778 34.8695 47.3058 34.8993 47.2271C34.929 47.1484 34.9429 47.0647 34.9402 46.9806L34.6802 40.1006C36.3959 40.044 38.1061 39.877 39.8002 39.6006C41.2588 39.3424 42.6321 38.7313 43.8002 37.8206C44.8919 36.8084 45.6224 35.4668 45.8802 34.0006C46.2045 32.6033 46.184 31.1482 45.8202 29.7606Z" fill="currentColor"/>
<path fill-rule="evenodd" clip-rule="evenodd" d="M34 16.1C33.42 17.16 32.98 17.88 32.42 18.96L30.94 22C30.7 21.58 30.46 21.18 30.2 20.78C29.2 19.16 28.2 17.98 27.18 16.64C26.16 15.3 25.18 15.5 24.32 16.46C23.46 17.42 23.22 17.7 22.7 18.46C21.8762 19.7855 20.9746 21.061 20 22.28L16 16.2C15.2 15.08 14.46 15.4 14.22 15.68C13.5 16.82 12.94 17.58 12.22 18.74C11.5 19.9 11.18 20.44 10.6 21.46C10.2 22.04 10.98 22.5 11.42 22.06C12.06 21.04 12.54 20.34 13.2 19.34C13.86 18.34 14.36 17.58 14.98 16.7L18.8 23.04C18.9643 23.2112 19.1615 23.3474 19.3797 23.4405C19.598 23.5335 19.8328 23.5815 20.07 23.5815C20.3073 23.5815 20.5421 23.5335 20.7604 23.4405C20.9786 23.3474 21.1758 23.2112 21.34 23.04C22.14 21.96 22.84 21.28 23.6 20.2C24.36 19.12 24.98 18.2 25.6 17.12L29.8 23C29.929 23.1931 30.106 23.3494 30.3136 23.4535C30.5212 23.5576 30.7522 23.606 30.9842 23.5939C31.2161 23.5818 31.4409 23.5096 31.6365 23.3845C31.8321 23.2593 31.9919 23.0855 32.1 22.88C32.8 21.36 33.6 20.28 34.34 18.76C34.74 17.92 34.88 17.76 35.3 16.94L38.82 21.38C39.16 21.84 40.22 21.52 39.88 21.04L36.12 16.18C36.0064 16.006 35.8527 15.8619 35.6719 15.7595C35.4911 15.6572 35.2884 15.5997 35.0807 15.5919C34.8731 15.5841 34.6666 15.6261 34.4786 15.7145C34.2906 15.8029 34.1265 15.9351 34 16.1Z" fill="currentColor"/>
<path fill-rule="evenodd" clip-rule="evenodd" d="M43.42 14.3C41.0223 13.5519 38.4921 13.3268 36 13.64L33.1 13.82C32.44 9.93999 31.32 4.49999 28.96 1.81999C28.2622 0.901267 27.2509 0.271275 26.1187 0.049989C24.9864 -0.171297 23.8123 0.0315824 22.82 0.619991C22.3325 0.870641 21.8816 1.18692 21.48 1.55999C21.1095 1.91869 20.7684 2.30661 20.46 2.71999C19.7396 3.80737 19.1489 4.97531 18.7 6.19999C17.7 8.71999 17.06 11.54 16.3 14.2L13.72 14C9.56002 14 7.00002 13.62 5.62002 16C5.31595 16.4966 5.15503 17.0677 5.15503 17.65C5.15503 18.2323 5.31595 18.8033 5.62002 19.3C6.24959 20.2967 7.00966 21.2048 7.88002 22C8.75211 22.8632 9.75852 23.5792 10.86 24.12C11.9238 24.5968 13.0591 24.8941 14.22 25C15.88 25.18 17.6 25.1 19.18 25.16C22.72 25.3 26.5 25.58 30.22 25.48C32.7297 25.4511 35.2296 25.1629 37.68 24.62C39.7499 24.0618 41.6607 23.0276 43.26 21.6C44.4619 20.5946 45.2228 19.159 45.38 17.6C45.4382 16.9142 45.2806 16.2274 44.9291 15.6357C44.5777 15.044 44.05 14.577 43.42 14.3ZM19.68 7.99999C20.2689 6.56369 21.0566 5.21721 22.02 3.99999C22.2563 3.67422 22.5317 3.37868 22.84 3.11999C23.1035 2.86474 23.4076 2.6552 23.74 2.49999C25.96 1.35999 27.5 2.49999 28.68 4.49999C30.2467 7.48667 31.3653 10.6876 32 14L26.1 14.38C23.08 14.38 20.24 14.38 17.38 14.26C18.14 12.14 18.82 9.99999 19.68 7.99999ZM42 20.22C40.6127 21.618 38.9323 22.6905 37.08 23.36C32.04 24.6 14.6 23.56 14.44 23.54C12.3318 23.4304 10.338 22.5474 8.84002 21.06C8.05828 20.3256 7.38488 19.4839 6.84002 18.56C6.66448 18.256 6.57207 17.9111 6.57207 17.56C6.57207 17.2089 6.66448 16.864 6.84002 16.56C7.82002 14.84 9.94001 15.12 13.9 15.26C23.74 15.64 29.76 15.68 33.6 15.64C39.98 15.64 40.28 15.24 42 15.64C42.96 15.9 43.74 16.4 43.68 17.46C43.6015 18.0098 43.4122 18.538 43.1234 19.0125C42.8346 19.4869 42.4524 19.8977 42 20.22Z" fill="currentColor"/>
</g>
<defs>
<clipPath id="clip0_1207_2522">
<rect width="48" height="48" fill="white"/>
</clipPath>
</defs>
</svg>
