<svg viewBox="0 0 60 64" fill="none" xmlns="http://www.w3.org/2000/svg">
<path d="M17.3501 57.9999H2V9.99991H40V30.08C40 30.3452 40.1054 30.5996 40.2929 30.7871C40.4804 30.9746 40.7348 31.08 41 31.08C41.2652 31.08 41.5196 30.9746 41.7071 30.7871C41.8946 30.5996 42 30.3452 42 30.08V8.99991C42 8.7347 41.8946 8.48034 41.7071 8.29281C41.5196 8.10527 41.2652 7.99991 41 7.99991H38V0.999913C38 0.850175 37.9664 0.702344 37.9016 0.567338C37.8369 0.432331 37.7426 0.313596 37.6258 0.219902C37.509 0.126207 37.3727 0.0599462 37.2268 0.0260117C37.081 -0.00792267 36.9294 -0.00866377 36.7832 0.0238432L0.7832 8.02384C0.566545 8.08342 0.37421 8.20984 0.233587 8.38509C0.092963 8.56034 0.0112206 8.7755 0 8.99991V58.9999C0 59.2651 0.105357 59.5195 0.292893 59.707C0.48043 59.8946 0.734784 59.9999 1 59.9999H17.3501C17.6153 59.9999 17.8697 59.8946 18.0572 59.707C18.2447 59.5195 18.3501 59.2651 18.3501 58.9999C18.3501 58.7347 18.2447 58.4803 18.0572 58.2928C17.8697 58.1053 17.6153 57.9999 17.3501 57.9999ZM36 7.99991H10.1093L36 2.24649V7.99991Z" fill="currentColor"/>
<path d="M37 31.6801C37.2652 31.6801 37.5196 31.5747 37.7071 31.3872C37.8946 31.1996 38 30.9453 38 30.6801V17.9999C38 17.7347 37.8946 17.4803 37.7071 17.2928C37.5196 17.1053 37.2652 16.9999 37 16.9999C35.9395 16.9987 34.9228 16.5769 34.1729 15.827C33.423 15.0771 33.0012 14.0604 33 12.9999C33 12.7347 32.8946 12.4803 32.7071 12.2928C32.5196 12.1053 32.2652 11.9999 32 11.9999H10C9.73478 11.9999 9.48043 12.1053 9.29289 12.2928C9.10536 12.4803 9 12.7347 9 12.9999C8.99879 14.0604 8.57697 15.0771 7.82709 15.827C7.07721 16.5769 6.06049 16.9987 5 16.9999C4.73478 16.9999 4.48043 17.1053 4.29289 17.2928C4.10536 17.4803 4 17.7347 4 17.9999V49.9999C4 50.2651 4.10536 50.5195 4.29289 50.707C4.48043 50.8946 4.73478 50.9999 5 50.9999C6.06049 51.0011 7.07721 51.4229 7.82709 52.1728C8.57697 52.9227 8.99879 53.9394 9 54.9999C9 55.2651 9.10536 55.5195 9.29289 55.707C9.48043 55.8946 9.73478 55.9999 10 55.9999H20C20.2652 55.9999 20.5196 55.8946 20.7071 55.707C20.8946 55.5195 21 55.2651 21 54.9999C21 54.7347 20.8946 54.4803 20.7071 54.2928C20.5196 54.1053 20.2652 53.9999 20 53.9999H10.9165C10.7069 52.7722 10.1213 51.6399 9.24066 50.7592C8.36 49.8786 7.22767 49.293 6 49.0834V18.9164C7.22767 18.7068 8.36 18.1212 9.24066 17.2406C10.1213 16.3599 10.7069 15.2276 10.9165 13.9999H31.0835C31.2931 15.2276 31.8787 16.3599 32.7593 17.2406C33.64 18.1212 34.7723 18.7068 36 18.9164V30.6801C36 30.9453 36.1054 31.1996 36.2929 31.3872C36.4804 31.5747 36.7348 31.6801 37 31.6801Z" fill="currentColor"/>
<path d="M57 57.9999V54.9999C56.9933 51.1907 55.7086 47.4939 53.3516 44.5014C50.9946 41.5089 47.7016 39.3939 44 38.4949V36.9999C44 35.939 43.5786 34.9216 42.8284 34.1715C42.0783 33.4213 41.0609 32.9999 40 32.9999C38.9391 32.9999 37.9217 33.4213 37.1716 34.1715C36.4214 34.9216 36 35.939 36 36.9999V38.4949C32.2984 39.3939 29.0054 41.5089 26.6484 44.5014C24.2914 47.4939 23.0067 51.1907 23 54.9999V57.9999C22.2044 57.9999 21.4413 58.316 20.8787 58.8786C20.3161 59.4412 20 60.2043 20 60.9999C20 61.7956 20.3161 62.5586 20.8787 63.1212C21.4413 63.6838 22.2044 63.9999 23 63.9999H57C57.7957 63.9999 58.5587 63.6838 59.1213 63.1212C59.6839 62.5586 60 61.7956 60 60.9999C60 60.2043 59.6839 59.4412 59.1213 58.8786C58.5587 58.316 57.7957 57.9999 57 57.9999ZM38 36.9999C38 36.4695 38.2107 35.9608 38.5858 35.5857C38.9609 35.2106 39.4696 34.9999 40 34.9999C40.5304 34.9999 41.0391 35.2106 41.4142 35.5857C41.7893 35.9608 42 36.4695 42 36.9999V38.1283C40.6722 37.9571 39.3278 37.9571 38 38.1283V36.9999ZM25 55.9999H48C48.2652 55.9999 48.5196 55.8946 48.7071 55.707C48.8946 55.5195 49 55.2651 49 54.9999C49 54.7347 48.8946 54.4803 48.7071 54.2928C48.5196 54.1053 48.2652 53.9999 48 53.9999H25.0507C25.2999 50.2046 26.9832 46.6462 29.7594 44.0464C32.5355 41.4466 36.1966 39.9999 40 39.9999C43.8034 39.9999 47.4645 41.4466 50.2406 44.0464C53.0168 46.6462 54.7001 50.2046 54.9493 53.9999H52C51.7348 53.9999 51.4804 54.1053 51.2929 54.2928C51.1054 54.4803 51 54.7347 51 54.9999C51 55.2651 51.1054 55.5195 51.2929 55.707C51.4804 55.8946 51.7348 55.9999 52 55.9999H55V57.9999H25V55.9999ZM57 61.9999H23C22.7348 61.9999 22.4804 61.8946 22.2929 61.707C22.1054 61.5195 22 61.2651 22 60.9999C22 60.7347 22.1054 60.4803 22.2929 60.2928C22.4804 60.1053 22.7348 59.9999 23 59.9999H57C57.2652 59.9999 57.5196 60.1053 57.7071 60.2928C57.8946 60.4803 58 60.7347 58 60.9999C58 61.2651 57.8946 61.5195 57.7071 61.707C57.5196 61.8946 57.2652 61.9999 57 61.9999Z" fill="currentColor"/>
<path d="M23 15.9999C22.7348 15.9999 22.4804 16.1053 22.2929 16.2928C22.1054 16.4803 22 16.7347 22 16.9999V19.9999C22.0027 20.8843 22.2986 21.7428 22.8415 22.4409C23.3844 23.1391 24.1435 23.6374 25 23.8579V28.9999C25 29.2651 25.1054 29.5195 25.2929 29.707C25.4804 29.8946 25.7348 29.9999 26 29.9999C26.2652 29.9999 26.5196 29.8946 26.7071 29.707C26.8946 29.5195 27 29.2651 27 28.9999V23.8579C27.8565 23.6374 28.6156 23.1391 29.1585 22.4409C29.7014 21.7428 29.9973 20.8843 30 19.9999V16.9999C30 16.7347 29.8946 16.4803 29.7071 16.2928C29.5196 16.1053 29.2652 15.9999 29 15.9999C28.7348 15.9999 28.4804 16.1053 28.2929 16.2928C28.1054 16.4803 28 16.7347 28 16.9999V19.9999C27.9989 20.3494 27.9059 20.6924 27.7304 20.9947C27.5549 21.2969 27.303 21.5476 27 21.7218V16.9999C27 16.7347 26.8946 16.4803 26.7071 16.2928C26.5196 16.1053 26.2652 15.9999 26 15.9999C25.7348 15.9999 25.4804 16.1053 25.2929 16.2928C25.1054 16.4803 25 16.7347 25 16.9999V21.7218C24.697 21.5476 24.4451 21.2969 24.2696 20.9947C24.0941 20.6924 24.0011 20.3494 24 19.9999V16.9999C24 16.7347 23.8946 16.4803 23.7071 16.2928C23.5196 16.1053 23.2652 15.9999 23 15.9999Z" fill="currentColor"/>
<path d="M16 29.9999C16.2652 29.9999 16.5196 29.8946 16.7071 29.707C16.8946 29.5195 17 29.2651 17 28.9999V24.8579C17.8565 24.6374 18.6156 24.1391 19.1585 23.4409C19.7014 22.7428 19.9973 21.8843 20 20.9999C20 19.0092 18.4048 15.9999 16 15.9999C13.5952 15.9999 12 19.0092 12 20.9999C12.0027 21.8843 12.2986 22.7428 12.8415 23.4409C13.3844 24.1391 14.1435 24.6374 15 24.8579V28.9999C15 29.2651 15.1054 29.5195 15.2929 29.707C15.4804 29.8946 15.7348 29.9999 16 29.9999ZM14 20.9999C14 19.7606 15.0342 17.9999 16 17.9999C16.9658 17.9999 18 19.7606 18 20.9999C18 21.5303 17.7893 22.039 17.4142 22.4141C17.0391 22.7892 16.5304 22.9999 16 22.9999C15.4696 22.9999 14.9609 22.7892 14.5858 22.4141C14.2107 22.039 14 21.5303 14 20.9999Z" fill="currentColor"/>
<path d="M13 32.9999H11C10.7348 32.9999 10.4804 33.1053 10.2929 33.2928C10.1054 33.4803 10 33.7347 10 33.9999C10 34.2651 10.1054 34.5195 10.2929 34.707C10.4804 34.8946 10.7348 34.9999 11 34.9999H13C13.2652 34.9999 13.5196 34.8946 13.7071 34.707C13.8946 34.5195 14 34.2651 14 33.9999C14 33.7347 13.8946 33.4803 13.7071 33.2928C13.5196 33.1053 13.2652 32.9999 13 32.9999Z" fill="currentColor"/>
<path d="M32 33.9999C32 33.7347 31.8946 33.4803 31.7071 33.2928C31.5196 33.1053 31.2652 32.9999 31 32.9999H17C16.7348 32.9999 16.4804 33.1053 16.2929 33.2928C16.1054 33.4803 16 33.7347 16 33.9999C16 34.2651 16.1054 34.5195 16.2929 34.707C16.4804 34.8946 16.7348 34.9999 17 34.9999H31C31.2652 34.9999 31.5196 34.8946 31.7071 34.707C31.8946 34.5195 32 34.2651 32 33.9999Z" fill="currentColor"/>
<path d="M13 37.9999H11C10.7348 37.9999 10.4804 38.1053 10.2929 38.2928C10.1054 38.4803 10 38.7347 10 38.9999C10 39.2651 10.1054 39.5195 10.2929 39.707C10.4804 39.8946 10.7348 39.9999 11 39.9999H13C13.2652 39.9999 13.5196 39.8946 13.7071 39.707C13.8946 39.5195 14 39.2651 14 38.9999C14 38.7347 13.8946 38.4803 13.7071 38.2928C13.5196 38.1053 13.2652 37.9999 13 37.9999Z" fill="currentColor"/>
<path d="M28 38.9999C28 38.7347 27.8946 38.4803 27.7071 38.2928C27.5196 38.1053 27.2652 37.9999 27 37.9999H17C16.7348 37.9999 16.4804 38.1053 16.2929 38.2928C16.1054 38.4803 16 38.7347 16 38.9999C16 39.2651 16.1054 39.5195 16.2929 39.707C16.4804 39.8946 16.7348 39.9999 17 39.9999H27C27.2652 39.9999 27.5196 39.8946 27.7071 39.707C27.8946 39.5195 28 39.2651 28 38.9999Z" fill="currentColor"/>
<path d="M13 42.9999H11C10.7348 42.9999 10.4804 43.1053 10.2929 43.2928C10.1054 43.4803 10 43.7347 10 43.9999C10 44.2651 10.1054 44.5195 10.2929 44.707C10.4804 44.8946 10.7348 44.9999 11 44.9999H13C13.2652 44.9999 13.5196 44.8946 13.7071 44.707C13.8946 44.5195 14 44.2651 14 43.9999C14 43.7347 13.8946 43.4803 13.7071 43.2928C13.5196 43.1053 13.2652 42.9999 13 42.9999Z" fill="currentColor"/>
<path d="M24 43.9999C24 43.7347 23.8946 43.4803 23.7071 43.2928C23.5196 43.1053 23.2652 42.9999 23 42.9999H17C16.7348 42.9999 16.4804 43.1053 16.2929 43.2928C16.1054 43.4803 16 43.7347 16 43.9999C16 44.2651 16.1054 44.5195 16.2929 44.707C16.4804 44.8946 16.7348 44.9999 17 44.9999H23C23.2652 44.9999 23.5196 44.8946 23.7071 44.707C23.8946 44.5195 24 44.2651 24 43.9999Z" fill="currentColor"/>
<path d="M13 47.9999H11C10.7348 47.9999 10.4804 48.1053 10.2929 48.2928C10.1054 48.4803 10 48.7347 10 48.9999C10 49.2651 10.1054 49.5195 10.2929 49.707C10.4804 49.8946 10.7348 49.9999 11 49.9999H13C13.2652 49.9999 13.5196 49.8946 13.7071 49.707C13.8946 49.5195 14 49.2651 14 48.9999C14 48.7347 13.8946 48.4803 13.7071 48.2928C13.5196 48.1053 13.2652 47.9999 13 47.9999Z" fill="currentColor"/>
<path d="M17 47.9999C16.7348 47.9999 16.4804 48.1053 16.2929 48.2928C16.1054 48.4803 16 48.7347 16 48.9999C16 49.2651 16.1054 49.5195 16.2929 49.707C16.4804 49.8946 16.7348 49.9999 17 49.9999H19C19.2652 49.9999 19.5196 49.8946 19.7071 49.707C19.8946 49.5195 20 49.2651 20 48.9999C20 48.7347 19.8946 48.4803 19.7071 48.2928C19.5196 48.1053 19.2652 47.9999 19 47.9999H17Z" fill="currentColor"/>
<path d="M5 13.9999C5.55228 13.9999 6 13.5522 6 12.9999C6 12.4476 5.55228 11.9999 5 11.9999C4.44772 11.9999 4 12.4476 4 12.9999C4 13.5522 4.44772 13.9999 5 13.9999Z" fill="currentColor"/>
<path d="M37 13.9999C37.5523 13.9999 38 13.5522 38 12.9999C38 12.4476 37.5523 11.9999 37 11.9999C36.4477 11.9999 36 12.4476 36 12.9999C36 13.5522 36.4477 13.9999 37 13.9999Z" fill="currentColor"/>
<path d="M5 55.9999C5.55228 55.9999 6 55.5522 6 54.9999C6 54.4476 5.55228 53.9999 5 53.9999C4.44772 53.9999 4 54.4476 4 54.9999C4 55.5522 4.44772 55.9999 5 55.9999Z" fill="currentColor"/>
</svg>
