<svg viewBox="0 0 61 65" fill="none" xmlns="http://www.w3.org/2000/svg">
<path d="M59.8967 59.328L49.6291 44.3173C49.3516 43.9195 48.9825 43.5943 48.5531 43.369C48.1236 43.1436 47.6463 43.0247 47.1613 43.0224H37.2111C36.9459 43.0224 36.6915 43.1277 36.504 43.3153C36.3165 43.5028 36.2111 43.7571 36.2111 44.0224C36.2111 44.2876 36.3165 44.5419 36.504 44.7295C36.6915 44.917 36.9459 45.0224 37.2111 45.0224H47.1613C47.3233 45.0241 47.4826 45.0644 47.626 45.14C47.7693 45.2156 47.8926 45.3242 47.9855 45.4569L48.8532 46.7254L37.3654 53.0224H7.26183L12.4298 45.4677C12.5225 45.3323 12.6464 45.2211 12.791 45.1436C12.9357 45.0661 13.0968 45.0245 13.2609 45.0224H23.2111C23.4763 45.0224 23.7307 44.917 23.9182 44.7295C24.1058 44.5419 24.2111 44.2876 24.2111 44.0224C24.2111 43.7571 24.1058 43.5028 23.9182 43.3153C23.7307 43.1277 23.4763 43.0224 23.2111 43.0224H13.2609C12.7739 43.0252 12.2947 43.1453 11.864 43.3726C11.4332 43.5999 11.0636 43.9276 10.7863 44.328L0.52556 59.328C0.216623 59.7786 0.0366326 60.3049 0.00502443 60.8503C-0.0265838 61.3957 0.0913914 61.9393 0.346211 62.4225C0.60103 62.9057 0.983011 63.3101 1.4509 63.5921C1.9188 63.8741 2.45483 64.0228 3.00111 64.0224H57.4211C57.9674 64.0228 58.5034 63.8741 58.9713 63.5921C59.4392 63.3102 59.8212 62.9057 60.076 62.4225C60.3309 61.9393 60.4488 61.3957 60.4172 60.8503C60.3856 60.3049 60.2056 59.7786 59.8967 59.328ZM37.6213 55.0224C37.7892 55.0223 37.9544 54.98 38.1017 54.8994L49.9878 48.3842L51.6485 50.8118L30.9571 62.0224H25.1151L30.8116 58.8994C31.0064 58.7927 31.1601 58.6242 31.2485 58.4205C31.3369 58.2168 31.355 57.9895 31.2999 57.7744C31.2449 57.5593 31.1198 57.3686 30.9444 57.2325C30.769 57.0963 30.5533 57.0224 30.3312 57.0224H4.5255L5.89367 55.0224H37.6213ZM2.11541 61.4901C2.02815 61.3294 1.98758 61.1475 1.99828 60.9649C2.00898 60.7823 2.07052 60.6064 2.17595 60.4569L3.15734 59.0224H26.4269L20.9551 62.0224H3.00111C2.81852 62.0252 2.63879 61.9768 2.48226 61.8827C2.32574 61.7887 2.19866 61.6527 2.11541 61.4901ZM58.3068 61.4901C58.2236 61.6527 58.0965 61.7887 57.94 61.8827C57.7834 61.9768 57.6037 62.0252 57.4211 62.0224H35.1565L52.784 52.4717L58.2463 60.4569C58.3517 60.6064 58.4132 60.7823 58.4239 60.9649C58.4346 61.1475 58.3941 61.3294 58.3068 61.4901Z" fill="currentColor"/>
<path d="M24.6554 41.2534C25.0942 41.36 25.4851 41.6094 25.7667 41.9624C26.0483 42.3154 26.2046 42.752 26.2111 43.2035V47.0224C26.2111 48.0832 26.6325 49.1006 27.3827 49.8508C28.1328 50.6009 29.1502 51.0224 30.2111 51.0224C31.272 51.0224 32.2894 50.6009 33.0395 49.8508C33.7897 49.1006 34.2111 48.0832 34.2111 47.0224V43.2011C34.2062 42.7688 34.3439 42.3471 34.6029 42.001C34.8619 41.6549 35.2277 41.4038 35.6437 41.2865C40.5602 39.9698 44.8311 36.9124 47.6624 32.6829C50.4937 28.4533 51.6926 23.3395 51.0362 18.2923C50.3798 13.2451 47.9127 8.60804 44.0938 5.24339C40.2749 1.87873 35.364 0.0154739 30.2743 9.59515e-05C25.1846 -0.015282 20.2625 1.81826 16.4233 5.15978C12.5841 8.5013 10.0891 13.1234 9.40223 18.1665C8.71534 23.2097 9.88332 28.3306 12.689 32.5772C15.4946 36.8238 19.747 39.907 24.6554 41.2534ZM29.172 2.05023C29.5236 2.03165 29.8735 2.02236 30.2218 2.02236C34.8295 2.02212 39.2801 3.69731 42.744 6.7357C46.208 9.7741 48.4489 13.9684 49.0492 18.5368C49.6494 23.1052 48.5681 27.736 46.0066 31.5661C43.4452 35.3962 39.5784 38.1643 35.1271 39.3544C34.2858 39.5859 33.5442 40.0881 33.0171 40.7835C32.49 41.4788 32.2067 42.3285 32.2111 43.2011V47.0224C32.2111 47.5528 32.0004 48.0615 31.6253 48.4366C31.2502 48.8117 30.7415 49.0224 30.2111 49.0224C29.6807 49.0224 29.172 48.8117 28.7969 48.4366C28.4218 48.0615 28.2111 47.5528 28.2111 47.0224V43.2035C28.1997 42.3148 27.8974 41.4544 27.3505 40.7538C26.8036 40.0533 26.0422 39.5513 25.1828 39.3246C21.2267 38.2273 17.7303 35.8826 15.2134 32.6391C12.6965 29.3955 11.2936 25.4264 11.2131 21.3217C11.1749 16.4223 13.015 11.6944 16.3553 8.11002C19.6956 4.52561 24.2821 2.35711 29.172 2.05023Z" fill="currentColor"/>
<path d="M30.2111 36.0224C33.1778 36.0224 36.0779 35.1426 38.5447 33.4944C41.0114 31.8462 42.934 29.5035 44.0693 26.7626C45.2046 24.0217 45.5017 21.0057 44.9229 18.096C44.3441 15.1863 42.9155 12.5136 40.8177 10.4158C38.7199 8.31798 36.0472 6.88936 33.1375 6.31059C30.2278 5.73181 27.2118 6.02886 24.4709 7.16417C21.73 8.29949 19.3873 10.2221 17.7391 12.6888C16.0909 15.1555 15.2111 18.0556 15.2111 21.0224C15.2155 24.9993 16.7973 28.812 19.6094 31.6241C22.4215 34.4362 26.2342 36.0179 30.2111 36.0224ZM30.2111 8.02236C32.7823 8.02236 35.2957 8.7848 37.4335 10.2133C39.5714 11.6417 41.2376 13.672 42.2216 16.0475C43.2055 18.4229 43.4629 21.0368 42.9613 23.5585C42.4597 26.0803 41.2216 28.3967 39.4035 30.2148C37.5854 32.0328 35.269 33.271 32.7473 33.7726C30.2255 34.2742 27.6117 34.0167 25.2362 33.0328C22.8608 32.0489 20.8305 30.3826 19.402 28.2448C17.9736 26.1069 17.2111 23.5935 17.2111 21.0224C17.215 17.5757 18.5859 14.2714 21.023 11.8343C23.4602 9.39716 26.7645 8.02627 30.2111 8.02236Z" fill="currentColor"/>
<path d="M34.2111 20.8804V27.0224C34.2111 27.2876 34.3165 27.5419 34.504 27.7295C34.6915 27.917 34.9459 28.0224 35.2111 28.0224C35.4763 28.0224 35.7307 27.917 35.9182 27.7295C36.1058 27.5419 36.2111 27.2876 36.2111 27.0224V20.8804C37.0676 20.6599 37.8268 20.1616 38.3697 19.4635C38.9126 18.7653 39.2085 17.9068 39.2111 17.0224V15.0224C39.2111 14.7571 39.1058 14.5028 38.9182 14.3153C38.7307 14.1277 38.4763 14.0224 38.2111 14.0224C37.9459 14.0224 37.6915 14.1277 37.504 14.3153C37.3165 14.5028 37.2111 14.7571 37.2111 15.0224V17.0224C37.21 17.3718 37.117 17.7148 36.9415 18.017C36.766 18.3192 36.5141 18.57 36.2111 18.7441V15.0224C36.2111 14.7571 36.1058 14.5028 35.9182 14.3153C35.7307 14.1277 35.4763 14.0224 35.2111 14.0224C34.9459 14.0224 34.6915 14.1277 34.504 14.3153C34.3165 14.5028 34.2111 14.7571 34.2111 15.0224V18.7441C33.9081 18.57 33.6563 18.3192 33.4808 18.017C33.3052 17.7148 33.2123 17.3718 33.2111 17.0224V15.0224C33.2111 14.7571 33.1058 14.5028 32.9182 14.3153C32.7307 14.1277 32.4763 14.0224 32.2111 14.0224C31.9459 14.0224 31.6915 14.1277 31.504 14.3153C31.3165 14.5028 31.2111 14.7571 31.2111 15.0224V17.0224C31.2137 17.9068 31.5097 18.7653 32.0526 19.4635C32.5955 20.1616 33.3546 20.6599 34.2111 20.8804Z" fill="currentColor"/>
<path d="M24.2111 22.8804V27.0224C24.2111 27.2876 24.3165 27.5419 24.504 27.7295C24.6915 27.917 24.9459 28.0224 25.2111 28.0224C25.4763 28.0224 25.7307 27.917 25.9182 27.7295C26.1058 27.5419 26.2111 27.2876 26.2111 27.0224V22.8804C27.0676 22.6599 27.8268 22.1616 28.3697 21.4635C28.9126 20.7653 29.2085 19.9068 29.2111 19.0224C29.2111 17.0316 27.6154 14.0224 25.2111 14.0224C22.8068 14.0224 21.2111 17.0316 21.2111 19.0224C21.2137 19.9068 21.5097 20.7653 22.0526 21.4635C22.5955 22.1616 23.3546 22.6599 24.2111 22.8804ZM25.2111 16.0224C26.1769 16.0224 27.2111 17.7831 27.2111 19.0224C27.2111 19.5528 27.0004 20.0615 26.6253 20.4366C26.2503 20.8117 25.7416 21.0224 25.2111 21.0224C24.6807 21.0224 24.172 20.8117 23.7969 20.4366C23.4218 20.0615 23.2111 19.5528 23.2111 19.0224C23.2111 17.7831 24.2453 16.0224 25.2111 16.0224Z" fill="currentColor"/>
</svg>
