<svg  viewBox="0 0 48 48" fill="none" xmlns="http://www.w3.org/2000/svg">
<g clip-path="url(#clip0_1207_2701)">
<path fill-rule="evenodd" clip-rule="evenodd" d="M48 23.5V22.76C48.08 21.7883 48.08 20.8117 48 19.84C47.9558 19.3599 47.8688 18.8847 47.74 18.42C47.58 17.8 47.38 17.2 47.18 16.58C46.78 15.32 46.42 14.08 45.94 12.9C45.5833 12.0443 45.1411 11.2268 44.62 10.46C43.1124 8.28498 40.8903 6.7069 38.34 6.00003C35.9192 5.39321 33.3975 5.30461 30.94 5.74003C25.9459 6.41487 21.115 7.9868 16.68 10.38C12.2557 12.8055 8.34886 16.0736 5.18002 20L3.42002 22.28L2.06002 24.28C1.1259 25.9192 0.591436 27.7556 0.500023 29.64C0.382562 29.7268 0.30362 29.8559 0.280023 30C-0.236775 32.3085 -0.0200269 34.7207 0.900023 36.9C1.31521 38.0421 1.96348 39.0853 2.80361 39.9633C3.64374 40.8413 4.65736 41.5349 5.78002 42C7.32175 42.5569 8.99732 42.6267 10.58 42.2C13.68 41.46 16.58 39.14 19.86 39.3C20.7547 39.3397 21.6381 39.515 22.48 39.82C23.92 40.28 25.3 40.9 26.74 41.36C29.4425 42.1852 32.2544 42.5965 35.08 42.58C37.0465 42.5959 38.9924 42.1794 40.78 41.36C42.7017 40.4011 44.3059 38.908 45.4 37.06C46.9549 34.3828 47.8464 31.3722 48 28.28C48.101 26.6883 48.101 25.0918 48 23.5ZM3.34002 25.02L4.70002 23.02L6.46002 20.88C9.56242 17.2519 13.3474 14.2688 17.6 12.1C21.8568 9.92621 26.4706 8.53734 31.22 8.00003C33.3738 7.6369 35.579 7.71858 37.7 8.24003C39.7066 8.86872 41.441 10.1589 42.62 11.9C43.0479 12.5278 43.4098 13.198 43.7 13.9C44.16 15.02 44.48 16.2 44.86 17.4C45.06 17.98 45.26 18.54 45.4 19.12C45.5069 19.4578 45.574 19.8068 45.6 20.16C45.8458 22.5876 45.4957 25.0384 44.58 27.3C43.7019 29.4865 42.0799 31.2927 40 32.4C39.2291 32.7884 38.4261 33.1096 37.6 33.36C36.7675 33.6009 35.9186 33.7814 35.06 33.9C34.189 33.9901 33.311 33.9901 32.44 33.9C31 33.8 29.5 33.56 28.28 33.44C27.06 33.32 23.88 32.52 21.64 32.18C21.0357 32.0491 20.4183 31.9887 19.8 32C18.6869 32.0863 17.5904 32.3217 16.54 32.7C14.3332 33.6714 12.061 34.4867 9.74002 35.14C8.83424 35.3388 7.90653 35.4195 6.98002 35.38C6.10852 35.3271 5.2666 35.0442 4.54002 34.56L4.34002 34.46C4.32445 34.3617 4.28542 34.2685 4.22624 34.1885C4.16706 34.1084 4.08947 34.0438 4.00002 34C3.37932 33.7678 2.84117 33.3571 2.45327 32.8197C2.06537 32.2824 1.84505 31.6423 1.82002 30.98C1.6821 28.8905 2.19193 26.8092 3.28002 25.02H3.34002ZM44.54 34.84C43.5819 36.8571 41.9571 38.4819 39.94 39.44C38.4135 40.0687 36.7697 40.362 35.12 40.3C32.5286 40.2729 29.955 39.8687 27.48 39.1C25.8 38.58 24.18 37.8 22.46 37.36C21.6559 37.1494 20.8308 37.0287 20 37C18.4652 37.0092 16.9506 37.3504 15.56 38C13.7829 38.8825 11.9604 39.6703 10.1 40.36C8.87406 40.7304 7.56599 40.7304 6.34002 40.36C5.41855 40.0064 4.57834 39.4697 3.8702 38.7821C3.16206 38.0946 2.60069 37.2707 2.22002 36.36C1.82094 35.4265 1.54528 34.4449 1.40002 33.44C1.89647 34.1476 2.59289 34.6908 3.40002 35C3.37968 35.1311 3.39494 35.2652 3.44419 35.3884C3.49345 35.5115 3.5749 35.6192 3.68002 35.7C4.41553 36.2159 5.25528 36.5641 6.14002 36.72C7.42329 36.9149 8.73134 36.8743 10 36.6C12.3899 35.9703 14.7351 35.1818 17.02 34.24C17.9857 33.9281 18.987 33.7399 20 33.68C20.775 33.7142 21.5451 33.8213 22.3 34C24.52 34.44 27.32 35.16 28.3 35.26C29.54 35.4 31.04 35.66 32.5 35.8C33.4976 35.8987 34.5025 35.8987 35.5 35.8C36.4723 35.6833 37.4348 35.4961 38.38 35.24C39.3388 34.9774 40.2698 34.6224 41.16 34.18C43.4185 33.0162 45.2368 31.1488 46.34 28.86C46.0562 30.9428 45.4276 32.9637 44.48 34.84H44.54Z" fill="currentColor"/>
<path fill-rule="evenodd" clip-rule="evenodd" d="M13.2598 29.1593C13.6249 28.7063 13.8868 28.179 14.0272 27.6144C14.1676 27.0497 14.1831 26.4613 14.0726 25.89C13.9622 25.3187 13.7285 24.7785 13.3877 24.3068C13.047 23.8352 12.6075 23.4436 12.0998 23.1593C11.6619 22.8557 11.1635 22.6502 10.6388 22.557C10.1142 22.4638 9.57553 22.4851 9.05982 22.6193C7.94346 22.8594 6.94603 23.4819 6.23982 24.3793C5.57148 25.3185 5.28547 26.4769 5.43982 27.6193C5.49398 28.2104 5.66719 28.7845 5.94903 29.3069C6.23088 29.8294 6.61553 30.2894 7.07982 30.6593C7.57389 31.0006 8.13455 31.2336 8.72501 31.343C9.31546 31.4524 9.92238 31.4358 10.5059 31.2941C11.0895 31.1525 11.6365 30.8891 12.1111 30.5211C12.5857 30.1532 12.9772 29.6891 13.2598 29.1593ZM7.77982 25.4793C8.14168 24.8406 8.72517 24.3567 9.41982 24.1193C9.96716 23.91 10.5725 23.91 11.1198 24.1193C11.1775 24.2411 11.2674 24.3448 11.3798 24.4193C11.6388 24.6327 11.8518 24.8964 12.0059 25.1945C12.16 25.4926 12.2519 25.8189 12.2763 26.1536C12.3006 26.4883 12.2567 26.8245 12.1473 27.1417C12.0379 27.459 11.8653 27.7507 11.6398 27.9993C11.4897 28.2757 11.282 28.5167 11.0309 28.7061C10.7797 28.8955 10.4908 29.0287 10.1838 29.097C9.87668 29.1652 9.55855 29.1668 9.25081 29.1017C8.94307 29.0365 8.65288 28.9061 8.39982 28.7193C7.94552 28.3419 7.65226 27.8054 7.57982 27.2193C7.44815 26.6333 7.51864 26.0201 7.77982 25.4793Z" fill="currentColor"/>
<path fill-rule="evenodd" clip-rule="evenodd" d="M15.9999 19.4791L16.2199 19.6991C16.2967 19.7832 16.3952 19.8445 16.5046 19.8762C16.614 19.908 16.73 19.909 16.8399 19.8791C17.3361 20.2153 17.7637 20.643 18.0999 21.1391C18.6323 21.8729 18.9819 22.7231 19.1199 23.6191C19.1881 24.6247 19.3083 25.626 19.4799 26.6191C19.6691 27.3734 20.0556 28.0637 20.5999 28.6191C21.3656 29.4089 22.2936 30.0231 23.3199 30.4191C24.7844 30.9467 26.3238 31.2371 27.8799 31.2791C31.7431 31.5998 35.6234 30.9106 39.1399 29.2791C40.4167 28.6662 41.5259 27.7528 42.3723 26.6173C43.2187 25.4817 43.7772 24.1578 43.9999 22.7591C44.0701 22.0542 44.0701 21.3441 43.9999 20.6391C43.9597 19.9278 43.8389 19.2233 43.6399 18.5391C43.4799 17.9991 43.2999 17.4791 43.0999 16.9591C42.8828 16.4351 42.6288 15.9272 42.3399 15.4391C41.3083 13.6721 39.7484 12.2731 37.8799 11.4391C35.1707 10.3889 32.2422 10.0315 29.3599 10.3991C27.8943 10.4855 26.4371 10.6794 24.9999 10.9791C24.0095 11.2045 23.0494 11.5469 22.1399 11.9991L19.1399 13.7991C17.9999 14.4791 15.9999 15.7991 15.5399 17.1791C15.4229 17.4715 15.3712 17.7858 15.3885 18.1002C15.4058 18.4146 15.4916 18.7214 15.6399 18.9991C15.6606 19.1008 15.7036 19.1967 15.7659 19.2797C15.8281 19.3627 15.9081 19.4308 15.9999 19.4791ZM17.1199 17.2791C17.9528 16.3875 18.9256 15.6376 19.9999 15.0591L21.1999 14.3991L22.8599 13.4591C23.6642 13.091 24.5105 12.8224 25.3799 12.6591C26.7346 12.4204 28.1049 12.28 29.4799 12.2391C31.6211 12.0713 33.775 12.2881 35.8399 12.8791C37.7805 13.4683 39.4113 14.7974 40.3799 16.5791C40.6158 16.9741 40.8166 17.389 40.9799 17.8191C41.1599 18.2591 41.2999 18.6991 41.4399 19.1591C41.5752 19.6902 41.6622 20.2324 41.6999 20.7791C41.7493 21.3314 41.7493 21.8869 41.6999 22.4391C41.5172 23.4862 41.0857 24.4741 40.4419 25.3198C39.798 26.1656 38.9606 26.8443 37.9999 27.2991C34.8957 28.8311 31.4591 29.5666 27.9999 29.4391C26.8544 29.4468 25.7123 29.3125 24.5999 29.0391C23.5416 28.8031 22.5671 28.2848 21.7799 27.5391C21.4062 27.1771 21.1368 26.7211 20.9999 26.2191C20.8 25.2815 20.653 24.3333 20.5599 23.3791C20.3392 22.2831 19.8744 21.2508 19.1999 20.3591C18.628 19.6111 17.888 19.0082 17.0399 18.5991C16.8877 18.4095 16.8098 18.1708 16.8208 17.9278C16.8319 17.6848 16.9311 17.4542 17.0999 17.2791H17.1199Z" fill="currentColor"/>
</g>
<defs>
<clipPath id="clip0_1207_2701">
<rect width="48" height="48" fill="white"/>
</clipPath>
</defs>
</svg>
